<svg xmlns="http://www.w3.org/2000/svg" version="1.1" xmlns:xlink="http://www.w3.org/1999/xlink" xmlns:svgjs="http://svgjs.dev/svgjs" width="1500" height="935" viewBox="0 0 1500 935"><g transform="matrix(1,0,0,1,-0.9090909090909918,0.3785425101214628)"><svg viewBox="0 0 396 247" data-background-color="#ffffff" preserveAspectRatio="xMidYMid meet" height="935" width="1500" xmlns="http://www.w3.org/2000/svg" xmlns:xlink="http://www.w3.org/1999/xlink"><g id="tight-bounds" transform="matrix(1,0,0,1,0.2400000000000091,-0.09999999999999432)"><svg viewBox="0 0 395.52 247.2" height="247.2" width="395.52"><g><svg></svg></g><g><svg viewBox="0 0 395.52 247.2" height="247.2" width="395.52"><g transform="matrix(1,0,0,1,78.67488050621992,47.215199999999996)"><svg viewBox="0 0 238.17023898756014 152.7696" height="152.7696" width="238.17023898756014"><g><svg viewBox="0 0 238.17023898756014 152.7696" height="152.7696" width="238.17023898756014"><g><svg viewBox="0 0 244.43135999999998 156.7856725231165" height="152.7696" width="238.17023898756014"><g><svg viewBox="0 0 244.43135999999998 156.7856725231165" height="156.7856725231165" width="244.43135999999998"><g id="textblocktransform"><svg viewBox="0 0 244.43135999999998 156.7856725231165" height="156.7856725231165" width="244.43135999999998" id="textblock"><g><svg viewBox="0 0 244.43135999999998 105.34261970149251" height="105.34261970149251" width="244.43135999999998"><g transform="matrix(1,0,0,1,0,0)"><svg width="244.43135999999998" viewBox="1.5499999999999998 -34 80.39 34.65" height="105.34261970149251" data-palette-color="#3d3d3d"><path d="M6.1-24.85L6.1-24.85Q4.7-24.9 3.85-25.7 3-26.5 3-27.95L3-27.95Q3.05-29.5 4.05-30.48 5.05-31.45 6.6-31.4L6.6-31.4Q8.05-31.35 8.88-30.55 9.7-29.75 9.65-28.3L9.65-28.3Q9.6-26.8 8.65-25.83 7.7-24.85 6.1-24.85ZM6.15 0.5L6.15 0.5Q4.65 0.5 3.8-0.33 2.95-1.15 2.95-3.15L2.95-3.15Q2.95-4.3 3.18-5.4 3.4-6.5 3.7-7.55L3.7-7.55Q4.05-8.65 4.28-9.8 4.5-10.95 4.5-12.25L4.5-12.25Q4.5-13.15 4.25-13.98 4-14.8 3.15-15.2L3.15-15.2Q2.5-15.55 2.02-15.93 1.55-16.3 1.55-16.9L1.55-16.9Q1.55-17.6 2.2-18.4 2.85-19.2 3.93-19.78 5-20.35 6.15-20.35L6.15-20.35Q7.4-20.35 7.98-19.7 8.55-19.05 8.75-18.05 8.95-17.05 8.95-16L8.95-16Q8.95-14.4 8.7-12.88 8.45-11.35 8.2-10.05L8.2-10.05Q8-9.1 7.9-8.3 7.8-7.5 7.8-6.8L7.8-6.8Q7.8-5.55 8.4-4.93 9-4.3 10.1-3.75L10.1-3.75Q10.55-3.5 10.55-3L10.55-3Q10.55-2.6 10.15-1.75 9.75-0.9 8.78-0.2 7.8 0.5 6.15 0.5ZM24.4 0.65L24.4 0.65Q22.55 0.65 21.22 0 19.9-0.65 18.9-1.65L18.9-1.65Q18.4-0.8 17.72-0.13 17.05 0.55 16.2 0.55L16.2 0.55Q15.65 0.55 15.15 0.23 14.65-0.1 14.75-0.65L14.75-0.65Q15.5-4.65 16.02-8.75 16.55-12.85 16.55-17.1L16.55-17.1Q16.55-20.65 16.3-23.75 16.05-26.85 14.75-29.45L14.75-29.45Q14.5-29.95 14.32-30.4 14.15-30.85 14.15-31.25L14.15-31.25Q14.15-32.2 15.25-33.1 16.35-34 17.6-34L17.6-34Q19.4-34 20.05-31.8 20.7-29.6 20.7-25.3L20.7-25.3Q20.7-21.65 20.37-18.63 20.05-15.6 19.65-13.45L19.65-13.45Q21.05-16.4 23.47-18.43 25.9-20.45 28.95-20.45L28.95-20.45Q32-20.45 33.72-18.43 35.45-16.4 35.45-12.95L35.45-12.95Q35.45-10.4 34.65-7.98 33.85-5.55 32.4-3.6 30.95-1.65 28.92-0.5 26.9 0.65 24.4 0.65ZM25.55-4.75L25.55-4.75Q28.4-4.75 29.95-6.55 31.5-8.35 31.5-10.7L31.5-10.7Q31.5-12.75 30.37-13.88 29.25-15 27.4-15L27.4-15Q25.55-15 24.1-13.88 22.65-12.75 21.65-10.93 20.65-9.1 20.1-7L20.1-7Q21.25-5.9 22.67-5.33 24.1-4.75 25.55-4.75ZM46.55 0.65L46.55 0.65Q43.05 0.65 41.07-1.48 39.1-3.6 39.1-7.4L39.1-7.4Q39.1-11.15 40.7-14.1 42.3-17.05 45.1-18.75 47.9-20.45 51.45-20.45L51.45-20.45Q53.84-20.45 55.25-19.65 56.65-18.85 56.65-17.45L56.65-17.45Q56.65-16.2 55.45-15L55.45-15Q55-14.55 54.27-14.18 53.55-13.8 53.15-13.8L53.15-13.8Q52.7-13.8 52.4-14.15L52.4-14.15Q51.9-14.7 51.1-15.2 50.3-15.7 48.85-15.7L48.85-15.7Q46.4-15.7 44.85-14.03 43.3-12.35 43.3-9.65L43.3-9.65Q43.3-7.2 44.7-5.7 46.1-4.2 48.4-4.2L48.4-4.2Q49.6-4.2 51.02-4.63 52.45-5.05 53.55-5.85L53.55-5.85Q54.09-6.35 54.7-6.35L54.7-6.35Q55.7-6.35 55.7-5.1L55.7-5.1Q55.7-3.45 54.05-1.95L54.05-1.95Q52.8-0.8 50.72-0.08 48.65 0.65 46.55 0.65ZM61.34 0.55L61.34 0.55Q60.64 0.55 60.14 0.23 59.64-0.1 59.74-0.65L59.74-0.65Q60.49-4.65 61.02-8.78 61.54-12.9 61.54-17.1L61.54-17.1Q61.54-20.8 61.29-23.8 61.04-26.8 59.69-29.55L59.69-29.55Q59.44-30.1 59.29-30.5 59.14-30.9 59.14-31.25L59.14-31.25Q59.14-32.2 60.27-33.1 61.39-34 62.64-34L62.64-34Q64.39-34 65.04-31.8 65.69-29.6 65.69-25.3L65.69-25.3Q65.69-20.15 65.09-16.32 64.49-12.5 64.04-10.5L64.04-10.5 64.24-10.4Q65.24-13.05 66.67-15.35 68.09-17.65 69.99-19.05 71.89-20.45 74.39-20.45L74.39-20.45Q77.04-20.45 78.42-18.85 79.79-17.25 79.79-14.9L79.79-14.9Q79.79-13.9 79.59-12.98 79.39-12.05 79.14-11.2L79.14-11.2Q78.89-10.4 78.69-9.58 78.49-8.75 78.49-7.9L78.49-7.9Q78.49-6.35 79.24-5.38 79.99-4.4 81.24-4L81.24-4Q81.59-3.9 81.77-3.73 81.94-3.55 81.94-3.1L81.94-3.1Q81.94-2.65 81.64-1.8 81.34-0.95 80.54-0.23 79.74 0.5 78.19 0.5L78.19 0.5Q76.19 0.5 75.09-0.93 73.99-2.35 73.99-4.6L73.99-4.6Q73.99-5.7 74.22-6.85 74.44-8 74.74-9.05L74.74-9.05Q74.99-10.1 75.19-11.03 75.39-11.95 75.39-12.6L75.39-12.6Q75.39-14.9 72.99-14.9L72.99-14.9Q70.99-14.9 69.47-13.48 67.94-12.05 66.87-9.88 65.79-7.7 65.09-5.4L65.09-5.4 65.09-3.7Q65.09-1.85 64.02-0.65 62.94 0.55 61.34 0.55Z" opacity="1" transform="matrix(1,0,0,1,0,0)" fill="#3d3d3d" class="wordmark-text-0" data-fill-palette-color="primary" id="text-0"></path></svg></g></svg></g><g transform="matrix(1,0,0,1,0,130.21148399014206)"><svg viewBox="0 0 244.43135999999998 26.57418853297443" height="26.57418853297443" width="244.43135999999998"><g transform="matrix(1,0,0,1,0,0)"><svg width="244.43135999999998" viewBox="4 -35.01 326.48 35.5" height="26.57418853297443" data-palette-color="#556970"><path d="M7.15 0L4 0 4-35.01 7.15-35.01 7.15 0ZM43.55 0L40.55 0 40.55-18.31Q40.55-19.21 40.21-20.01 39.87-20.8 39.28-21.39 38.69-21.97 37.9-22.31 37.11-22.66 36.2-22.66L36.2-22.66 34.71-22.66Q33.81-22.66 33.02-22.31 32.22-21.97 31.63-21.39 31.03-20.8 30.69-20.01 30.34-19.21 30.34-18.31L30.34-18.31 30.34 0 27.37 0 27.37-18.31Q27.37-19.21 27.02-20.01 26.68-20.8 26.08-21.39 25.49-21.97 24.69-22.31 23.9-22.66 23-22.66L23-22.66 21.51-22.66Q20.6-22.66 19.81-22.31 19.02-21.97 18.43-21.39 17.84-20.8 17.5-20.01 17.16-19.21 17.16-18.31L17.16-18.31 17.16 0 14.16 0 14.16-25 15.16-25 16.79-22.46Q17.82-23.85 19.37-24.67 20.92-25.49 22.75-25.49L22.75-25.49 23-25.49Q25.12-25.49 26.83-24.44 28.54-23.39 29.47-21.66L29.47-21.66Q29.93-22.51 30.61-23.22 31.3-23.93 32.13-24.43 32.96-24.93 33.93-25.21 34.91-25.49 35.96-25.49L35.96-25.49 36.2-25.49Q37.72-25.49 39.06-24.91 40.4-24.34 41.4-23.34 42.4-22.34 42.98-21 43.55-19.65 43.55-18.14L43.55-18.14 43.55 0ZM66.25-6.86L66.25-6.86Q66.25-5.35 65.68-4 65.11-2.66 64.11-1.66 63.11-0.66 61.76-0.09 60.42 0.49 58.91 0.49L58.91 0.49 56.9 0.49Q55.39 0.49 54.05-0.09 52.7-0.66 51.7-1.66 50.7-2.66 50.13-4 49.56-5.35 49.56-6.86L49.56-6.86 49.56-18.14Q49.56-19.65 50.13-21 50.7-22.34 51.7-23.34 52.7-24.34 54.05-24.91 55.39-25.49 56.9-25.49L56.9-25.49 58.91-25.49Q60.42-25.49 61.76-24.91 63.11-24.34 64.11-23.34 65.11-22.34 65.68-21 66.25-19.65 66.25-18.14L66.25-18.14 66.25-12.26 52.56-12.26 52.56-6.69Q52.56-5.79 52.9-4.99 53.24-4.2 53.83-3.61 54.41-3.03 55.21-2.69 56-2.34 56.9-2.34L56.9-2.34 58.91-2.34Q59.81-2.34 60.6-2.69 61.4-3.03 61.98-3.61 62.57-4.2 62.91-4.99 63.25-5.79 63.25-6.69L63.25-6.69 63.25-8.35 66.25-7.86 66.25-6.86ZM63.25-14.6L63.25-18.31Q63.25-19.21 62.91-20.01 62.57-20.8 61.98-21.39 61.4-21.97 60.6-22.31 59.81-22.66 58.91-22.66L58.91-22.66 56.9-22.66Q56-22.66 55.21-22.31 54.41-21.97 53.83-21.39 53.24-20.8 52.9-20.01 52.56-19.21 52.56-18.31L52.56-18.31 52.56-14.6 63.25-14.6ZM88.96 0L85.95 0 85.95-18.31Q85.95-19.21 85.61-20.01 85.27-20.8 84.68-21.39 84.1-21.97 83.31-22.31 82.51-22.66 81.61-22.66L81.61-22.66 79.61-22.66Q78.7-22.66 77.91-22.31 77.12-21.97 76.53-21.39 75.94-20.8 75.6-20.01 75.26-19.21 75.26-18.31L75.26-18.31 75.26 0 72.26 0 72.26-25 73.26-25 74.89-22.46Q75.92-23.85 77.47-24.67 79.02-25.49 80.85-25.49L80.85-25.49 81.61-25.49Q83.12-25.49 84.47-24.91 85.81-24.34 86.81-23.34 87.81-22.34 88.38-21 88.96-19.65 88.96-18.14L88.96-18.14 88.96 0ZM127.16-8.59L127.16-8.59Q127.16-6.81 126.49-5.25 125.82-3.69 124.65-2.51 123.47-1.34 121.9-0.67 120.32 0 118.54 0L118.54 0 107.46 0 107.46-35.01 118.54-35.01Q120.32-35.01 121.9-34.34 123.47-33.67 124.65-32.5 125.82-31.32 126.49-29.75 127.16-28.17 127.16-26.39L127.16-26.39 127.16-26.05Q127.16-24.8 126.83-23.67 126.5-22.53 125.89-21.56 125.28-20.58 124.45-19.79 123.62-18.99 122.59-18.46L122.59-18.46Q123.62-17.92 124.45-17.13 125.28-16.33 125.89-15.34 126.5-14.36 126.83-13.22 127.16-12.08 127.16-10.84L127.16-10.84 127.16-8.59ZM124.01-8.59L124.01-11.35Q124.01-12.52 123.57-13.54 123.13-14.55 122.36-15.31 121.59-16.06 120.58-16.5 119.57-16.94 118.4-16.94L118.4-16.94 110.61-16.94 110.61-3 118.4-3Q119.57-3 120.58-3.44 121.59-3.88 122.36-4.64 123.13-5.4 123.57-6.41 124.01-7.42 124.01-8.59L124.01-8.59ZM124.01-25.56L124.01-26.39Q124.01-27.56 123.57-28.58 123.13-29.59 122.36-30.36 121.59-31.13 120.58-31.57 119.57-32.01 118.4-32.01L118.4-32.01 110.61-32.01 110.61-19.95 118.4-19.95Q119.57-19.95 120.58-20.39 121.59-20.83 122.36-21.59 123.13-22.36 123.57-23.38 124.01-24.39 124.01-25.56L124.01-25.56ZM148.86-6.86L148.86-6.86Q148.86-5.35 148.29-4 147.71-2.66 146.71-1.66 145.71-0.66 144.37-0.09 143.03 0.49 141.51 0.49L141.51 0.49 139.51 0.49Q138 0.49 136.65-0.09 135.31-0.66 134.31-1.66 133.31-2.66 132.74-4 132.16-5.35 132.16-6.86L132.16-6.86 132.16-18.14Q132.16-19.65 132.74-21 133.31-22.34 134.31-23.34 135.31-24.34 136.65-24.91 138-25.49 139.51-25.49L139.51-25.49 141.51-25.49Q143.03-25.49 144.37-24.91 145.71-24.34 146.71-23.34 147.71-22.34 148.29-21 148.86-19.65 148.86-18.14L148.86-18.14 148.86-6.86ZM145.86-6.69L145.86-18.31Q145.86-19.21 145.52-20.01 145.18-20.8 144.59-21.39 144-21.97 143.21-22.31 142.42-22.66 141.51-22.66L141.51-22.66 139.51-22.66Q138.61-22.66 137.81-22.31 137.02-21.97 136.44-21.39 135.85-20.8 135.51-20.01 135.17-19.21 135.17-18.31L135.17-18.31 135.17-6.69Q135.17-5.79 135.51-4.99 135.85-4.2 136.44-3.61 137.02-3.03 137.81-2.69 138.61-2.34 139.51-2.34L139.51-2.34 141.51-2.34Q142.42-2.34 143.21-2.69 144-3.03 144.59-3.61 145.18-4.2 145.52-4.99 145.86-5.79 145.86-6.69L145.86-6.69ZM171.56 0L170.56 0 168.9-2.54Q167.88-1.15 166.34-0.33 164.8 0.49 162.97 0.49L162.97 0.49 162.21 0.49Q160.7 0.49 159.36-0.09 158.01-0.66 157.01-1.66 156.01-2.66 155.44-4 154.87-5.35 154.87-6.86L154.87-6.86 154.87-25 157.87-25 157.87-6.69Q157.87-5.79 158.21-4.99 158.55-4.2 159.14-3.61 159.72-3.03 160.52-2.69 161.31-2.34 162.21-2.34L162.21-2.34 164.22-2.34Q165.12-2.34 165.91-2.69 166.71-3.03 167.29-3.61 167.88-4.2 168.22-4.99 168.56-5.79 168.56-6.69L168.56-6.69 168.56-25 171.56-25 171.56 0ZM194.27-6.86L194.27-6.86Q194.27-5.35 193.69-4 193.12-2.66 192.12-1.66 191.12-0.66 189.77-0.09 188.43 0.49 186.92 0.49L186.92 0.49 184.92 0.49Q183.4 0.49 182.06-0.09 180.72-0.66 179.72-1.66 178.72-2.66 178.14-4 177.57-5.35 177.57-6.86L177.57-6.86 177.57-18.14Q177.57-19.65 178.14-21 178.72-22.34 179.72-23.34 180.72-24.34 182.06-24.91 183.4-25.49 184.92-25.49L184.92-25.49 186.92-25.49Q188.43-25.49 189.77-24.91 191.12-24.34 192.12-23.34 193.12-22.34 193.69-21 194.27-19.65 194.27-18.14L194.27-18.14 194.27-17.14 191.26-16.65 191.26-18.31Q191.26-19.21 190.92-20.01 190.58-20.8 189.99-21.39 189.41-21.97 188.62-22.31 187.82-22.66 186.92-22.66L186.92-22.66 184.92-22.66Q184.01-22.66 183.22-22.31 182.43-21.97 181.84-21.39 181.25-20.8 180.91-20.01 180.57-19.21 180.57-18.31L180.57-18.31 180.57-6.69Q180.57-5.79 180.91-4.99 181.25-4.2 181.84-3.61 182.43-3.03 183.22-2.69 184.01-2.34 184.92-2.34L184.92-2.34 186.92-2.34Q187.82-2.34 188.62-2.69 189.41-3.03 189.99-3.61 190.58-4.2 190.92-4.99 191.26-5.79 191.26-6.69L191.26-6.69 191.26-8.35 194.27-7.86 194.27-6.86ZM216.97 0L213.97 0 213.97-18.31Q213.97-19.21 213.62-20.01 213.28-20.8 212.7-21.39 212.11-21.97 211.32-22.31 210.52-22.66 209.62-22.66L209.62-22.66 207.62-22.66Q206.72-22.66 205.92-22.31 205.13-21.97 204.54-21.39 203.96-20.8 203.62-20.01 203.27-19.21 203.27-18.31L203.27-18.31 203.27 0 200.27 0 200.27-35.01 203.27-35.01 203.27-22.9Q204.3-24.12 205.74-24.8 207.18-25.49 208.86-25.49L208.86-25.49 209.62-25.49Q211.13-25.49 212.48-24.91 213.82-24.34 214.82-23.34 215.82-22.34 216.4-21 216.97-19.65 216.97-18.14L216.97-18.14 216.97 0ZM239.67 0L238.67 0 237.01-2.49Q235.99-1.15 234.45-0.33 232.91 0.49 231.08 0.49L231.08 0.49 230.32 0.49Q228.81 0.49 227.47-0.09 226.12-0.66 225.12-1.66 224.12-2.66 223.55-4 222.97-5.35 222.97-6.86L222.97-6.86 222.97-7.1Q222.97-8.62 223.55-9.96 224.12-11.3 225.12-12.3 226.12-13.31 227.47-13.88 228.81-14.45 230.32-14.45L230.32-14.45 236.67-14.45 236.67-18.31Q236.67-19.21 236.33-20.01 235.99-20.8 235.4-21.39 234.81-21.97 234.02-22.31 233.23-22.66 232.32-22.66L232.32-22.66 230.57-22.66Q229.66-22.66 228.87-22.31 228.08-21.97 227.49-21.39 226.9-20.8 226.56-20.01 226.22-19.21 226.22-18.31L226.22-18.31 226.22-17.41 223.22-17.9 223.22-18.14Q223.22-19.65 223.79-21 224.36-22.34 225.37-23.34 226.37-24.34 227.71-24.91 229.05-25.49 230.57-25.49L230.57-25.49 232.32-25.49Q233.84-25.49 235.18-24.91 236.52-24.34 237.52-23.34 238.52-22.34 239.1-21 239.67-19.65 239.67-18.14L239.67-18.14 239.67 0ZM236.67-6.69L236.67-12.11 230.32-12.11Q229.42-12.11 228.62-11.77 227.83-11.43 227.25-10.83 226.66-10.23 226.32-9.44 225.98-8.64 225.98-7.74L225.98-7.74 225.98-6.69Q225.98-5.79 226.32-4.99 226.66-4.2 227.25-3.61 227.83-3.03 228.62-2.69 229.42-2.34 230.32-2.34L230.32-2.34 232.32-2.34Q233.23-2.34 234.02-2.69 234.81-3.03 235.4-3.61 235.99-4.2 236.33-4.99 236.67-5.79 236.67-6.69L236.67-6.69ZM262.37 0L259.37 0 259.37-18.31Q259.37-19.21 259.03-20.01 258.69-20.8 258.1-21.39 257.52-21.97 256.72-22.31 255.93-22.66 255.03-22.66L255.03-22.66 253.02-22.66Q252.12-22.66 251.33-22.31 250.53-21.97 249.95-21.39 249.36-20.8 249.02-20.01 248.68-19.21 248.68-18.31L248.68-18.31 248.68 0 245.68 0 245.68-35.01 248.68-35.01 248.68-22.9Q249.7-24.12 251.14-24.8 252.58-25.49 254.27-25.49L254.27-25.49 255.03-25.49Q256.54-25.49 257.88-24.91 259.23-24.34 260.23-23.34 261.23-22.34 261.8-21 262.37-19.65 262.37-18.14L262.37-18.14 262.37 0ZM285.08-6.86L285.08-6.86Q285.08-5.35 284.5-4 283.93-2.66 282.93-1.66 281.93-0.66 280.59-0.09 279.24 0.49 277.73 0.49L277.73 0.49 275.73 0.49Q274.21 0.49 272.87-0.09 271.53-0.66 270.53-1.66 269.53-2.66 268.95-4 268.38-5.35 268.38-6.86L268.38-6.86 268.38-18.14Q268.38-19.65 268.95-21 269.53-22.34 270.53-23.34 271.53-24.34 272.87-24.91 274.21-25.49 275.73-25.49L275.73-25.49 277.73-25.49Q279.24-25.49 280.59-24.91 281.93-24.34 282.93-23.34 283.93-22.34 284.5-21 285.08-19.65 285.08-18.14L285.08-18.14 285.08-6.86ZM282.07-6.69L282.07-18.31Q282.07-19.21 281.73-20.01 281.39-20.8 280.8-21.39 280.22-21.97 279.43-22.31 278.63-22.66 277.73-22.66L277.73-22.66 275.73-22.66Q274.82-22.66 274.03-22.31 273.24-21.97 272.65-21.39 272.06-20.8 271.72-20.01 271.38-19.21 271.38-18.31L271.38-18.31 271.38-6.69Q271.38-5.79 271.72-4.99 272.06-4.2 272.65-3.61 273.24-3.03 274.03-2.69 274.82-2.34 275.73-2.34L275.73-2.34 277.73-2.34Q278.63-2.34 279.43-2.69 280.22-3.03 280.8-3.61 281.39-4.2 281.73-4.99 282.07-5.79 282.07-6.69L282.07-6.69ZM307.78 0L306.78 0 305.12-2.54Q304.09-1.15 302.56-0.33 301.02 0.49 299.19 0.49L299.19 0.49 298.43 0.49Q296.92 0.49 295.57-0.09 294.23-0.66 293.23-1.66 292.23-2.66 291.65-4 291.08-5.35 291.08-6.86L291.08-6.86 291.08-25 294.08-25 294.08-6.69Q294.08-5.79 294.43-4.99 294.77-4.2 295.35-3.61 295.94-3.03 296.73-2.69 297.53-2.34 298.43-2.34L298.43-2.34 300.43-2.34Q301.33-2.34 302.13-2.69 302.92-3.03 303.51-3.61 304.09-4.2 304.44-4.99 304.78-5.79 304.78-6.69L304.78-6.69 304.78-25 307.78-25 307.78 0ZM330.48 0L329.48 0 327.82-2.49Q326.8-1.15 325.26-0.33 323.72 0.49 321.89 0.49L321.89 0.49 321.13 0.49Q319.62 0.49 318.28-0.09 316.93-0.66 315.93-1.66 314.93-2.66 314.36-4 313.78-5.35 313.78-6.86L313.78-6.86 313.78-7.1Q313.78-8.62 314.36-9.96 314.93-11.3 315.93-12.3 316.93-13.31 318.28-13.88 319.62-14.45 321.13-14.45L321.13-14.45 327.48-14.45 327.48-18.31Q327.48-19.21 327.14-20.01 326.8-20.8 326.21-21.39 325.62-21.97 324.83-22.31 324.04-22.66 323.13-22.66L323.13-22.66 321.38-22.66Q320.47-22.66 319.68-22.31 318.89-21.97 318.3-21.39 317.71-20.8 317.37-20.01 317.03-19.21 317.03-18.31L317.03-18.31 317.03-17.41 314.03-17.9 314.03-18.14Q314.03-19.65 314.6-21 315.17-22.34 316.18-23.34 317.18-24.34 318.52-24.91 319.86-25.49 321.38-25.49L321.38-25.49 323.13-25.49Q324.65-25.49 325.99-24.91 327.33-24.34 328.33-23.34 329.34-22.34 329.91-21 330.48-19.65 330.48-18.14L330.48-18.14 330.48 0ZM327.48-6.69L327.48-12.11 321.13-12.11Q320.23-12.11 319.44-11.77 318.64-11.43 318.06-10.83 317.47-10.23 317.13-9.44 316.79-8.64 316.79-7.74L316.79-7.74 316.79-6.69Q316.79-5.79 317.13-4.99 317.47-4.2 318.06-3.61 318.64-3.03 319.44-2.69 320.23-2.34 321.13-2.34L321.13-2.34 323.13-2.34Q324.04-2.34 324.83-2.69 325.62-3.03 326.21-3.61 326.8-4.2 327.14-4.99 327.48-5.79 327.48-6.69L327.48-6.69Z" opacity="1" transform="matrix(1,0,0,1,0,0)" fill="#556970" class="slogan-text-1" data-fill-palette-color="secondary" id="text-1"></path></svg></g></svg></g></svg></g></svg></g></svg></g></svg></g></svg></g><g><path d="M0 123.6c0-68.262 55.338-123.6 123.6-123.6 33.567 0 64.009 13.381 86.282 35.099h-6.77c-21.072-18.944-48.946-30.471-79.512-30.471-65.706 0-118.972 53.265-118.972 118.972 0 65.706 53.265 118.972 118.972 118.972 30.566 0 58.44-11.527 79.512-30.471h6.77c-22.273 21.719-52.715 35.099-86.282 35.099-68.262 0-123.6-55.338-123.6-123.6z" fill="#556970" stroke="transparent" data-fill-palette-color="tertiary"></path></g></svg></g><defs></defs></svg><rect width="395.52" height="247.2" fill="none" stroke="none" visibility="hidden"></rect></g></svg></g></svg>