<svg xmlns="http://www.w3.org/2000/svg" version="1.1" xmlns:xlink="http://www.w3.org/1999/xlink" xmlns:svgjs="http://svgjs.dev/svgjs" width="2000" height="2000" viewBox="0 0 2000 2000"><g transform="matrix(1,0,0,1,-0.9999999999998863,-0.9999999999998863)"><svg viewBox="0 0 280 280" data-background-color="#5874d9" preserveAspectRatio="xMidYMid meet" height="2000" width="2000" xmlns="http://www.w3.org/2000/svg" xmlns:xlink="http://www.w3.org/1999/xlink"><g id="tight-bounds" transform="matrix(1,0,0,1,0.13999999999998636,0.13999999999998636)"><svg viewBox="0 0 279.72 279.72" height="279.72" width="279.72"><g><svg viewBox="0 0 279.72 279.72" height="279.72" width="279.72"><g><svg viewBox="0 0 279.72 279.72" height="279.72" width="279.72"><g id="textblocktransform"><svg viewBox="0 0 279.72 279.72" height="279.72" width="279.72" id="textblock"><g><svg viewBox="0 0 279.72 279.72" height="279.72" width="279.72"><g transform="matrix(1,0,0,1,73.92936372216631,81.21698039225248)"><svg viewBox="0 0 131.8612725556674 117.28603921549505" height="117.28603921549505" width="131.8612725556674"><g id="icon-0"><svg xmlns="http://www.w3.org/2000/svg" xmlns:xlink="http://www.w3.org/1999/xlink" version="1.1" x="0" y="0" viewBox="7.93 12.929 83.838 74.571" enable-background="new 0 0 100 100" xml:space="preserve" height="117.28603921549505" width="131.8612725556674" class="icon-jxe-0" data-fill-palette-color="accent" id="jxe-0"><path d="M50 72.5C45.864 72.5 42.5 75.864 42.5 80S45.864 87.5 50 87.5 57.5 84.136 57.5 80 54.136 72.5 50 72.5M50 82.5C48.621 82.5 47.5 81.379 47.5 80S48.621 77.5 50 77.5 52.5 78.621 52.5 80 51.379 82.5 50 82.5" fill="#000000" data-fill-palette-color="accent"></path><polygon points="46.465,27.071 50,23.535 53.535,27.071 57.07,23.536 53.535,20 57.07,16.464 53.535,12.929 50,16.465   46.465,12.929 42.93,16.464 46.465,20 42.93,23.536 " fill="#000000" data-fill-palette-color="accent"></polygon><polygon points="18.535,27.071 22.07,23.536 18.535,20 22.07,16.464 18.535,12.929 15,16.465 11.465,12.929 7.93,16.464 11.465,20   7.93,23.536 11.465,27.071 15,23.535 " fill="#000000" data-fill-palette-color="accent"></polygon><polygon points="82.5,18.964 79.268,15.732 75.732,19.268 82.5,26.036 91.768,16.768 88.232,13.232 " fill="#000000" data-fill-palette-color="accent"></polygon><polygon points="82.5,47.5 52.5,47.5 52.5,32.5 47.5,32.5 47.5,47.5 17.5,47.5 17.5,32.5 12.5,32.5 12.5,52.5 47.5,52.5 47.5,67.5   52.5,67.5 52.5,52.5 87.5,52.5 87.5,32.5 82.5,32.5 " fill="#000000" data-fill-palette-color="accent"></polygon></svg></g></svg></g><g id="text-0"><path d="M4.64 95.857v0c0.514-1.578 1.284-2.825 2.309-3.742 1.03-0.908 2.325-1.512 3.885-1.811v0l0.745 2.064c-1.411 0.224-2.519 0.689-3.322 1.394-0.804 0.705-1.407 1.673-1.807 2.902v0c-0.317 0.973-0.433 1.822-0.35 2.548 0.077 0.723 0.314 1.324 0.711 1.803 0.388 0.483 0.888 0.824 1.499 1.022v0c0.71 0.231 1.392 0.213 2.047-0.053 0.652-0.26 1.329-0.967 2.032-2.12v0l2.085-3.455c0.94-1.57 1.911-2.574 2.912-3.012 0.994-0.44 2.08-0.468 3.256-0.085v0c1.045 0.34 1.869 0.925 2.472 1.755 0.605 0.822 0.966 1.813 1.084 2.97 0.115 1.165-0.049 2.428-0.492 3.789v0c-0.418 1.282-0.97 2.364-1.657 3.246-0.685 0.875-1.455 1.555-2.312 2.039-0.863 0.483-1.765 0.807-2.706 0.974v0l-0.864-2.169c0.852-0.093 1.653-0.32 2.403-0.679 0.745-0.368 1.401-0.896 1.967-1.585 0.568-0.695 1.013-1.536 1.334-2.522v0c0.302-0.927 0.437-1.778 0.405-2.551-0.025-0.772-0.219-1.427-0.581-1.967-0.356-0.538-0.879-0.919-1.569-1.144v0c-0.651-0.212-1.287-0.19-1.909 0.065-0.624 0.262-1.242 0.901-1.856 1.916v0l-2.267 3.712c-0.616 1.021-1.265 1.795-1.946 2.323-0.674 0.529-1.37 0.845-2.086 0.946-0.708 0.097-1.427 0.026-2.156-0.212v0c-0.986-0.321-1.8-0.881-2.442-1.679-0.651-0.794-1.061-1.767-1.231-2.92-0.172-1.147-0.036-2.401 0.407-3.762z" fill="#000000" data-fill-palette-color="primary"></path><path d="M17.029 78.447v0c0.591-1.189 1.388-2.106 2.389-2.751 0.998-0.639 2.138-0.967 3.421-0.985 1.29-0.015 2.646 0.332 4.07 1.04v0c1.418 0.705 2.509 1.577 3.275 2.615 0.766 1.038 1.195 2.147 1.287 3.328 0.083 1.184-0.172 2.371-0.763 3.559v0c-0.585 1.176-1.377 2.092-2.375 2.746-1.004 0.651-2.15 0.984-3.44 0.999-1.29 0.015-2.643-0.33-4.06-1.036v0c-1.424-0.709-2.519-1.582-3.285-2.619-0.76-1.034-1.182-2.148-1.268-3.342-0.086-1.194 0.164-2.378 0.749-3.554zM18.664 79.26v0c-0.428 0.861-0.589 1.711-0.482 2.552 0.107 0.841 0.459 1.623 1.057 2.345 0.601 0.732 1.447 1.369 2.536 1.911v0c1.071 0.533 2.083 0.82 3.036 0.862 0.949 0.048 1.792-0.14 2.527-0.562 0.735-0.422 1.317-1.063 1.745-1.924v0c0.434-0.873 0.597-1.727 0.486-2.561-0.11-0.835-0.47-1.616-1.08-2.345-0.611-0.729-1.451-1.359-2.523-1.892v0c-1.09-0.542-2.106-0.836-3.049-0.881-0.937-0.042-1.772 0.146-2.504 0.562-0.732 0.416-1.315 1.06-1.749 1.933z" fill="#000000" data-fill-palette-color="primary"></path><path d="M21.273 58.405v0c0.284-0.426 0.591-0.774 0.921-1.044 0.334-0.276 0.664-0.459 0.989-0.549v0l1.105 1.409c-0.251 0.09-0.479 0.221-0.685 0.392-0.205 0.171-0.4 0.394-0.584 0.67v0c-0.456 0.685-0.628 1.335-0.515 1.95 0.115 0.625 0.555 1.193 1.321 1.703v0l1.881 1.255 0.587 0.391 11.642 7.762-1.174 1.76-14.283-9.522c-0.731-0.487-1.278-1.056-1.642-1.706-0.374-0.648-0.532-1.352-0.475-2.112 0.063-0.756 0.367-1.542 0.912-2.359zM23.019 68.221l5.265-7.897 1.519 1.013-5.265 7.897z" fill="#000000" data-fill-palette-color="primary"></path><path d="M28.606 54.204l0.861-2.021 11.561 9.258c0.61 0.488 1.192 0.702 1.746 0.641 0.554-0.061 1.032-0.343 1.434-0.845v0c0.346-0.432 0.559-0.859 0.641-1.281 0.087-0.418 0.098-0.852 0.033-1.302v0l1.817 0.551c0.05 0.59-0.012 1.177-0.189 1.763-0.182 0.581-0.499 1.155-0.953 1.721v0c-0.687 0.858-1.508 1.402-2.462 1.63-0.959 0.224-1.989-0.105-3.09-0.986v0zM29.65 58.575l6.211-7.756 1.425 1.141-6.211 7.756z" fill="#000000" data-fill-palette-color="primary"></path><path d="M36.559 43.088l1.437-1.554 14.243 13.166-1.437 1.554z" fill="#000000" data-fill-palette-color="primary"></path><path d="M58.776 48.832l-1.607 1.376-9.564-11.159 1.402-1.202 2.334 2.453-0.433-0.011c-0.455-1.158-0.501-2.248-0.138-3.27 0.363-1.022 0.978-1.903 1.844-2.646v0c0.756-0.648 1.579-1.08 2.468-1.295 0.88-0.217 1.772-0.175 2.675 0.125 0.899 0.295 1.758 0.92 2.578 1.875v0l6.135 7.159-1.607 1.377-5.662-6.608c-1.057-1.234-2.062-1.88-3.014-1.938-0.952-0.059-1.816 0.245-2.594 0.911v0c-0.536 0.459-0.948 1.045-1.238 1.758-0.29 0.713-0.356 1.503-0.197 2.368 0.169 0.866 0.653 1.767 1.454 2.702v0z" fill="#000000" data-fill-palette-color="primary"></path><path d="M75.82 36.651v0c-1.164 0.733-2.387 1.147-3.667 1.242-1.284 0.089-2.473-0.184-3.567-0.818v0l0.806-2.028c0.829 0.59 1.723 0.88 2.683 0.873 0.963-0.002 1.925-0.305 2.884-0.909v0c0.86-0.542 1.431-1.154 1.711-1.838 0.271-0.685 0.219-1.327-0.157-1.923v0c-0.239-0.38-0.572-0.649-0.997-0.806-0.423-0.166-1.006-0.118-1.748 0.144v0l-3.175 1.129c-1.324 0.466-2.414 0.572-3.269 0.318-0.851-0.249-1.544-0.797-2.078-1.646v0c-0.416-0.661-0.615-1.386-0.596-2.174 0.025-0.792 0.278-1.576 0.761-2.354 0.483-0.778 1.189-1.46 2.119-2.046v0c1.159-0.729 2.296-1.103 3.414-1.119 1.107-0.019 2.133 0.299 3.077 0.955v0l-0.853 1.897c-0.753-0.612-1.548-0.901-2.383-0.865-0.832 0.042-1.587 0.276-2.266 0.704v0c-0.579 0.365-1.032 0.768-1.358 1.21-0.322 0.448-0.499 0.894-0.53 1.339-0.027 0.45 0.085 0.874 0.335 1.272v0c0.239 0.38 0.593 0.656 1.061 0.828 0.464 0.166 1.083 0.111 1.857-0.165v0l3.315-1.18c1.267-0.454 2.287-0.566 3.062-0.334 0.769 0.235 1.398 0.742 1.888 1.52v0c0.729 1.159 0.876 2.358 0.438 3.597-0.435 1.23-1.358 2.289-2.767 3.177z" fill="#000000" data-fill-palette-color="primary"></path><path d="M78.605 17.876l1.889-0.953 6.62 13.122-1.889 0.953zM78.408 14.815v0c-0.475 0.24-0.927 0.289-1.354 0.149-0.437-0.144-0.775-0.453-1.014-0.929v0c-0.237-0.469-0.283-0.922-0.14-1.358 0.138-0.433 0.444-0.77 0.92-1.01v0c0.469-0.237 0.922-0.283 1.358-0.14 0.437 0.144 0.773 0.45 1.01 0.92v0c0.24 0.475 0.288 0.931 0.144 1.368-0.147 0.43-0.455 0.764-0.924 1z" fill="#000000" data-fill-palette-color="primary"></path><path d="M98.039 7.164v0l1.092 1.598c-0.019 0.007-0.049 0.018-0.088 0.032-0.032 0.012-0.068 0.025-0.107 0.04v0c-0.862 0.32-1.454 0.762-1.776 1.324-0.331 0.558-0.346 1.242-0.045 2.052v0l-1.412-0.195c-0.267-0.72-0.343-1.4-0.227-2.04 0.118-0.634 0.387-1.191 0.807-1.671 0.413-0.478 0.949-0.84 1.611-1.086v0c0.039-0.014 0.068-0.025 0.087-0.032 0.019-0.007 0.039-0.014 0.058-0.022zM95.549 24.764l3.801-1.412c1.283-0.477 2.392-0.549 3.327-0.218 0.941 0.329 1.592 0.98 1.954 1.952v0c0.327 0.882 0.332 1.747 0.012 2.595-0.323 0.858-0.901 1.644-1.735 2.36-0.827 0.713-1.846 1.294-3.058 1.745v0c-2.061 0.766-3.745 0.978-5.052 0.637-1.307-0.341-2.154-1.033-2.542-2.076v0c-0.275-0.739-0.269-1.49 0.016-2.252 0.278-0.76 0.942-1.386 1.99-1.879v0l0.009 0.439c-0.665 0.055-1.287-0.038-1.864-0.281-0.573-0.252-0.996-0.744-1.268-1.477v0c-0.26-0.7-0.23-1.423 0.09-2.169 0.32-0.746 0.982-1.368 1.985-1.866v0l1.685 0.127-0.36 0.134c-0.82 0.393-1.359 0.84-1.615 1.341-0.263 0.503-0.305 0.995-0.127 1.475v0c0.197 0.532 0.539 0.866 1.025 1.002 0.49 0.128 1.066 0.069 1.727-0.177zM99.266 30.155v0c1.011-0.376 1.815-0.803 2.411-1.283 0.594-0.486 0.996-0.982 1.207-1.489 0.21-0.506 0.234-0.979 0.07-1.42v0c-0.205-0.551-0.584-0.908-1.139-1.07-0.552-0.156-1.324-0.05-2.316 0.318v0l-3.987 1.481c-0.629 0.234-1.101 0.601-1.416 1.101-0.313 0.507-0.365 1.043-0.156 1.607v0c0.267 0.72 0.878 1.153 1.833 1.3 0.955 0.147 2.119-0.035 3.493-0.545zM92.266 11.876v0c1.063-0.395 2.073-0.545 3.03-0.451 0.951 0.097 1.784 0.403 2.499 0.92 0.715 0.516 1.241 1.225 1.575 2.125v0c0.335 0.901 0.399 1.788 0.193 2.662-0.216 0.869-0.652 1.651-1.309 2.345-0.663 0.696-1.517 1.238-2.561 1.626v0c-1.731 0.643-3.229 0.709-4.496 0.199-1.267-0.511-2.153-1.446-2.658-2.808v0c-0.335-0.901-0.4-1.781-0.195-2.638 0.205-0.858 0.642-1.636 1.313-2.336 0.67-0.699 1.54-1.247 2.609-1.644zM92.858 13.471v0c-0.979 0.364-1.69 0.941-2.133 1.733-0.45 0.794-0.508 1.642-0.173 2.542v0c0.335 0.901 0.936 1.507 1.804 1.82 0.871 0.318 1.786 0.299 2.745-0.057v0c0.953-0.354 1.652-0.935 2.097-1.742 0.441-0.798 0.494-1.648 0.16-2.549v0c-0.335-0.901-0.925-1.508-1.772-1.82-0.846-0.313-1.756-0.288-2.728 0.073z" fill="#000000" data-fill-palette-color="primary"></path><path d="M110.12 21.997l-2.058 0.489-4.961-20.868 2.059-0.49 2.12 8.921c0.245-1.003 0.72-1.816 1.425-2.439 0.705-0.622 1.555-1.052 2.551-1.289v0c0.969-0.23 1.896-0.245 2.783-0.043 0.88 0.203 1.654 0.648 2.321 1.335 0.668 0.687 1.147 1.643 1.439 2.867v0l2.18 9.173-2.058 0.489-2.018-8.486c-0.377-1.588-0.975-2.622-1.793-3.103-0.816-0.474-1.722-0.593-2.718-0.356v0c-0.686 0.163-1.322 0.495-1.906 0.997-0.584 0.501-1.004 1.173-1.258 2.015-0.246 0.847-0.227 1.87 0.057 3.068v0z" fill="#000000" data-fill-palette-color="primary"></path><path d="M124.957 0.849l2.051-0.789 1.406 14.744c0.074 0.778 0.326 1.344 0.756 1.7 0.43 0.355 0.965 0.502 1.605 0.44v0c0.551-0.053 1.006-0.197 1.365-0.432 0.36-0.229 0.679-0.523 0.958-0.883v0l0.869 1.688c-0.388 0.447-0.853 0.811-1.396 1.092-0.543 0.274-1.177 0.446-1.899 0.514v0c-1.094 0.104-2.056-0.106-2.884-0.631-0.829-0.532-1.31-1.5-1.444-2.905v0zM122.548 4.642l9.891-0.943 0.174 1.817-9.892 0.944z" fill="#000000" data-fill-palette-color="primary"></path><path d="M162.995 14.555l2.008 1.033c-0.781 1.585-1.881 2.756-3.302 3.514-1.427 0.756-3.033 1.028-4.818 0.815v0c-1.73-0.206-3.196-0.788-4.399-1.746-1.194-0.964-2.054-2.226-2.578-3.785-0.525-1.56-0.665-3.363-0.422-5.409v0c0.241-2.026 0.8-3.738 1.678-5.138 0.878-1.407 2.007-2.439 3.387-3.096 1.38-0.65 2.924-0.874 4.634-0.67v0c1.229 0.146 2.293 0.451 3.192 0.913 0.899 0.462 1.645 1.07 2.238 1.823 0.594 0.746 1.016 1.639 1.269 2.678v0l-2.168 0.745c-0.264-1.236-0.768-2.205-1.513-2.906-0.746-0.695-1.782-1.121-3.107-1.279v0c-1.284-0.153-2.448 0.029-3.491 0.545-1.05 0.516-1.917 1.335-2.601 2.458-0.69 1.116-1.135 2.511-1.334 4.187v0c-0.195 1.634-0.106 3.079 0.267 4.335 0.372 1.263 1.004 2.271 1.896 3.025 0.884 0.76 1.979 1.218 3.283 1.373v0c1.318 0.157 2.492-0.051 3.522-0.625 1.022-0.568 1.808-1.498 2.359-2.79z" fill="#000000" data-fill-palette-color="primary"></path><path d="M178.557 8.929v0c1.279 0.357 2.329 0.965 3.152 1.827 0.816 0.859 1.353 1.917 1.613 3.174 0.258 1.264 0.173 2.661-0.254 4.193v0c-0.425 1.525-1.075 2.762-1.95 3.71-0.875 0.948-1.883 1.578-3.026 1.891-1.147 0.305-2.36 0.279-3.639-0.078v0c-1.266-0.353-2.314-0.958-3.144-1.814-0.829-0.863-1.372-1.926-1.631-3.19-0.258-1.264-0.174-2.658 0.252-4.183v0c0.427-1.532 1.078-2.772 1.952-3.72 0.873-0.941 1.887-1.566 3.043-1.875 1.156-0.309 2.367-0.288 3.632 0.065zM178.067 10.687v0c-0.926-0.258-1.792-0.256-2.597 0.008-0.806 0.263-1.507 0.757-2.104 1.481-0.605 0.729-1.071 1.679-1.398 2.851v0c-0.321 1.152-0.413 2.2-0.274 3.144 0.132 0.941 0.475 1.733 1.028 2.375 0.553 0.642 1.293 1.093 2.219 1.351v0c0.939 0.262 1.808 0.26 2.607-0.005 0.799-0.265 1.499-0.767 2.099-1.503 0.6-0.737 1.061-1.682 1.383-2.834v0c0.327-1.172 0.423-2.226 0.289-3.161-0.136-0.928-0.477-1.712-1.024-2.353-0.546-0.641-1.289-1.092-2.228-1.354z" fill="#000000" data-fill-palette-color="primary"></path><path d="M187.8 28.072l-1.939-0.845 5.869-13.474 1.693 0.737-1.189 3.171-0.179-0.395c0.844-0.915 1.804-1.432 2.882-1.551 1.078-0.119 2.139 0.05 3.185 0.506v0c0.913 0.398 1.66 0.95 2.243 1.655 0.579 0.697 0.93 1.518 1.055 2.462 0.127 0.938-0.061 1.984-0.564 3.138v0l-3.765 8.643-1.94-0.845 3.475-7.978c0.649-1.49 0.792-2.676 0.43-3.557-0.362-0.882-1.013-1.527-1.951-1.936v0c-0.647-0.282-1.354-0.398-2.122-0.348-0.768 0.05-1.507 0.335-2.217 0.856-0.706 0.53-1.305 1.359-1.797 2.487v0z" fill="#000000" data-fill-palette-color="primary"></path><path d="M206.2 38.094v0c-1.168-0.728-2.074-1.647-2.718-2.757-0.641-1.116-0.914-2.305-0.821-3.567v0l2.177-0.159c-0.169 1.003-0.04 1.934 0.385 2.794 0.422 0.866 1.114 1.598 2.077 2.199v0c0.863 0.537 1.663 0.783 2.4 0.737 0.735-0.055 1.289-0.382 1.662-0.981v0c0.238-0.381 0.334-0.798 0.289-1.249-0.035-0.454-0.333-0.957-0.892-1.509v0l-2.402-2.364c-0.998-0.988-1.568-1.922-1.712-2.802-0.148-0.874 0.043-1.737 0.573-2.588v0c0.413-0.663 0.978-1.158 1.696-1.486 0.723-0.324 1.54-0.438 2.45-0.343 0.91 0.095 1.832 0.433 2.765 1.014v0c1.162 0.724 1.994 1.585 2.498 2.582 0.501 0.988 0.662 2.05 0.484 3.186v0l-2.079 0.061c0.222-0.945 0.135-1.786-0.262-2.522-0.401-0.73-0.941-1.307-1.622-1.731v0c-0.581-0.362-1.142-0.593-1.682-0.694-0.544-0.095-1.023-0.059-1.436 0.108-0.417 0.172-0.75 0.458-0.998 0.857v0c-0.238 0.381-0.332 0.82-0.282 1.315 0.053 0.49 0.373 1.023 0.959 1.6v0l2.508 2.466c0.962 0.941 1.507 1.811 1.637 2.609 0.124 0.794-0.057 1.582-0.543 2.363v0c-0.724 1.162-1.739 1.817-3.044 1.964-1.296 0.146-2.652-0.222-4.067-1.103z" fill="#000000" data-fill-palette-color="primary"></path><path d="M218.822 47.39v0c-0.712-0.582-1.257-1.259-1.634-2.032-0.383-0.777-0.51-1.622-0.38-2.534 0.125-0.907 0.583-1.845 1.375-2.814v0l6.123-7.494 1.639 1.339-5.769 7.06c-0.853 1.044-1.272 2.005-1.258 2.883 0.019 0.873 0.513 1.705 1.482 2.497v0c0.439 0.359 0.93 0.621 1.473 0.788 0.537 0.162 1.095 0.207 1.672 0.134 0.577-0.073 1.156-0.279 1.736-0.617 0.58-0.339 1.131-0.826 1.652-1.464v0l5.132-6.28 1.638 1.338-9.299 11.382-1.438-1.175 1.454-1.96c-0.626 0.274-1.255 0.416-1.889 0.426-0.632 0.019-1.256-0.097-1.87-0.35-0.615-0.253-1.228-0.628-1.839-1.127z" fill="#000000" data-fill-palette-color="primary"></path><path d="M244.169 41.231l1.464 1.527-12.829 12.307c-0.509 0.488-0.817 0.932-0.923 1.33-0.101 0.404 0.056 0.823 0.473 1.257v0c0.235 0.245 0.448 0.423 0.641 0.535 0.188 0.116 0.462 0.247 0.821 0.391v0l-1.541 1.075c-0.272-0.094-0.56-0.249-0.863-0.465-0.299-0.212-0.563-0.437-0.793-0.677v0c-0.814-0.848-1.114-1.681-0.902-2.498 0.218-0.822 0.738-1.628 1.562-2.418v0z" fill="#000000" data-fill-palette-color="primary"></path><path d="M249.388 52.052l1.783 1.285-11.574 9.243c-0.611 0.488-0.947 1.008-1.009 1.562-0.062 0.554 0.108 1.082 0.509 1.585v0c0.345 0.432 0.715 0.734 1.109 0.906 0.389 0.176 0.81 0.283 1.263 0.319v0l-0.937 1.651c-0.586-0.08-1.146-0.271-1.678-0.571-0.527-0.305-1.017-0.741-1.47-1.309v0c-0.686-0.859-1.036-1.779-1.049-2.759-0.008-0.985 0.539-1.917 1.642-2.798v0zM244.895 52.11l6.201 7.764-1.427 1.14-6.201-7.765z" fill="#000000" data-fill-palette-color="primary"></path><path d="M254.377 64.601l1.191 1.75-12.149 8.27-1.191-1.749zM257.387 64.008v0c-0.3-0.44-0.407-0.881-0.324-1.323 0.086-0.452 0.349-0.827 0.789-1.126v0c0.434-0.296 0.877-0.401 1.329-0.315 0.448 0.08 0.821 0.34 1.121 0.78v0c0.296 0.434 0.401 0.877 0.315 1.329-0.086 0.452-0.346 0.825-0.781 1.121v0c-0.44 0.3-0.886 0.407-1.337 0.321-0.446-0.09-0.817-0.352-1.112-0.787z" fill="#000000" data-fill-palette-color="primary"></path><path d="M247.668 82.058l-1.001-1.864 12.948-6.954 0.874 1.626-2.896 1.756 0.104-0.421c1.229-0.197 2.303-0.009 3.223 0.565 0.92 0.573 1.65 1.363 2.19 2.367v0c0.471 0.877 0.717 1.773 0.738 2.689 0.023 0.906-0.208 1.768-0.695 2.586-0.48 0.815-1.275 1.521-2.384 2.117v0l-8.306 4.461-1.001-1.864 7.667-4.118c1.432-0.769 2.278-1.612 2.538-2.529 0.261-0.917 0.149-1.827-0.335-2.728v0c-0.334-0.621-0.818-1.15-1.452-1.587-0.635-0.436-1.392-0.669-2.271-0.699-0.882-0.021-1.866 0.26-2.95 0.843v0z" fill="#000000" data-fill-palette-color="primary"></path><path d="M274.821 101.92v0l-1.616 1.064c-0.007-0.02-0.017-0.049-0.031-0.088-0.011-0.033-0.024-0.068-0.038-0.108v0c-0.305-0.867-0.737-1.467-1.293-1.799-0.552-0.341-1.236-0.367-2.051-0.08v0l0.219-1.408c0.724-0.255 1.405-0.319 2.043-0.191 0.632 0.129 1.185 0.408 1.658 0.834 0.471 0.421 0.823 0.964 1.057 1.629v0c0.014 0.039 0.024 0.068 0.031 0.088 0.007 0.02 0.014 0.039 0.021 0.059zM257.266 99.129l1.347 3.825c0.455 1.291 0.508 2.401 0.161 3.33-0.345 0.935-1.007 1.575-1.985 1.92v0c-0.887 0.312-1.752 0.302-2.595-0.032-0.852-0.338-1.629-0.929-2.33-1.775-0.699-0.839-1.263-1.868-1.692-3.088v0c-0.73-2.074-0.914-3.762-0.551-5.062 0.363-1.301 1.07-2.136 2.12-2.506v0c0.744-0.262 1.494-0.244 2.251 0.054 0.755 0.291 1.37 0.965 1.845 2.023v0l-0.44 0c-0.044-0.666 0.06-1.286 0.314-1.858 0.262-0.569 0.761-0.983 1.498-1.242v0c0.704-0.248 1.427-0.206 2.167 0.127 0.74 0.333 1.351 1.005 1.831 2.016v0l-0.155 1.682-0.127-0.362c-0.379-0.827-0.817-1.373-1.314-1.637-0.499-0.272-0.99-0.322-1.472-0.153v0c-0.535 0.188-0.875 0.524-1.02 1.008-0.136 0.488-0.087 1.064 0.147 1.73zM251.813 102.754v0c0.358 1.017 0.772 1.828 1.242 2.432 0.476 0.602 0.965 1.013 1.467 1.232 0.502 0.219 0.975 0.25 1.419 0.094v0c0.554-0.195 0.918-0.569 1.09-1.12 0.166-0.55 0.073-1.323-0.279-2.321v0l-1.412-4.012c-0.223-0.633-0.582-1.111-1.078-1.435-0.502-0.322-1.037-0.383-1.604-0.183v0c-0.724 0.255-1.168 0.858-1.33 1.811-0.163 0.952-0.002 2.119 0.485 3.502zM270.209 96.067v0c0.377 1.07 0.51 2.082 0.399 3.037-0.113 0.949-0.434 1.777-0.962 2.483-0.528 0.707-1.246 1.219-2.153 1.539v0c-0.907 0.319-1.795 0.368-2.664 0.147-0.866-0.23-1.64-0.68-2.323-1.349-0.685-0.675-1.212-1.538-1.582-2.588v0c-0.613-1.741-0.654-3.241-0.121-4.499 0.532-1.258 1.483-2.128 2.852-2.61v0c0.907-0.319 1.787-0.369 2.642-0.149 0.854 0.22 1.625 0.67 2.312 1.352 0.687 0.682 1.22 1.561 1.6 2.637zM268.604 96.632v0c-0.347-0.985-0.912-1.706-1.696-2.163-0.786-0.464-1.633-0.536-2.54-0.216v0c-0.907 0.319-1.523 0.91-1.849 1.773-0.333 0.865-0.33 1.78 0.01 2.745v0c0.338 0.959 0.906 1.668 1.705 2.127 0.791 0.455 1.639 0.522 2.546 0.203v0c0.907-0.319 1.523-0.899 1.85-1.74 0.327-0.841 0.318-1.751-0.026-2.729z" fill="#000000" data-fill-palette-color="primary"></path><path d="M1.048 142.237c0-4.557 3.694-8.251 8.25-8.25 4.557 0 8.251 3.694 8.251 8.25 0 4.557-3.694 8.251-8.251 8.251-4.557 0-8.251-3.694-8.25-8.251z" fill="#000000" data-fill-palette-color="primary"></path><path d="M262.171 142.237c0-4.557 3.694-8.251 8.251-8.25 4.557 0 8.251 3.694 8.25 8.25 0 4.557-3.694 8.251-8.25 8.251-4.557 0-8.251-3.694-8.251-8.251z" fill="#000000" data-fill-palette-color="primary"></path></g><g id="text-1"><path d="M12.203 186.558l-2.189-7.432 10.745-3.165 2.125 7.214-1.095 0.322-1.778-6.039-3.642 1.072 1.389 4.716-1.114 0.329-1.389-4.717-3.801 1.12 1.843 6.258z" fill="#000000" data-fill-palette-color="secondary"></path><path d="M14.134 191.382l-0.47-1.13 7.834-3.259 0.414 0.996-1.299 0.63c0.607 0.055 1.13 0.26 1.571 0.616 0.434 0.359 0.757 0.793 0.969 1.304v0c0.234 0.562 0.316 1.138 0.247 1.729-0.063 0.588-0.324 1.112-0.783 1.573v0c0.43 0.008 0.829 0.112 1.196 0.311 0.365 0.193 0.68 0.447 0.947 0.763 0.275 0.32 0.485 0.652 0.628 0.997v0c0.207 0.498 0.297 1.011 0.27 1.539-0.021 0.526-0.195 1.017-0.521 1.475-0.326 0.458-0.828 0.827-1.505 1.109v0l-5.027 2.092-0.466-1.121 4.922-2.048c0.728-0.303 1.181-0.708 1.359-1.216 0.174-0.499 0.151-1.014-0.07-1.544v0c-0.175-0.421-0.441-0.764-0.798-1.028-0.353-0.273-0.773-0.435-1.259-0.487-0.495-0.056-1.017 0.03-1.566 0.259v0l-4.357 1.812-0.47-1.13 4.922-2.047c0.728-0.303 1.182-0.705 1.362-1.208 0.174-0.499 0.151-1.014-0.069-1.544v0c-0.149-0.358-0.395-0.678-0.738-0.962-0.346-0.291-0.772-0.469-1.278-0.535-0.51-0.073-1.084 0.024-1.722 0.289v0z" fill="#000000" data-fill-palette-color="secondary"></path><path d="M18.281 208.986l-0.592-1.072 10.541-5.822 0.522 0.944-1.844 1.125 0.121-0.233c0.647-0.144 1.272-0.071 1.875 0.22 0.594 0.288 1.066 0.75 1.417 1.386v0c0.328 0.593 0.471 1.217 0.43 1.872-0.032 0.657-0.26 1.289-0.684 1.894-0.424 0.605-1.035 1.129-1.834 1.57v0c-0.805 0.445-1.575 0.681-2.311 0.708-0.742 0.03-1.404-0.117-1.986-0.443-0.577-0.329-1.029-0.79-1.357-1.383v0c-0.334-0.605-0.466-1.216-0.395-1.832 0.067-0.622 0.302-1.17 0.703-1.644v0l0.279 0.011zM23.449 209.117v0c0.395 0.714 0.969 1.132 1.723 1.252 0.76 0.117 1.585-0.07 2.474-0.561v0c0.89-0.491 1.489-1.087 1.798-1.787 0.306-0.69 0.265-1.387-0.123-2.088v0c-0.251-0.454-0.594-0.79-1.03-1.007-0.436-0.217-0.927-0.305-1.473-0.265-0.546 0.041-1.116 0.225-1.709 0.553v0c-0.587 0.324-1.045 0.704-1.374 1.138-0.335 0.438-0.53 0.893-0.585 1.366-0.052 0.479 0.048 0.945 0.299 1.399z" fill="#000000" data-fill-palette-color="secondary"></path><path d="M35.796 214.259v0c0.429 0.637 0.661 1.297 0.696 1.982 0.041 0.681-0.119 1.347-0.481 1.999-0.362 0.652-0.921 1.232-1.678 1.742v0c-0.763 0.513-1.512 0.813-2.245 0.898-0.74 0.09-1.42-0.011-2.041-0.301-0.615-0.295-1.137-0.76-1.566-1.397v0c-0.425-0.631-0.66-1.29-0.704-1.976-0.039-0.69 0.122-1.361 0.483-2.013 0.356-0.648 0.915-1.229 1.678-1.742v0c0.757-0.51 1.506-0.809 2.246-0.899 0.74-0.09 1.419 0.016 2.038 0.316 0.625 0.296 1.149 0.76 1.574 1.391zM34.926 214.844v0c-0.309-0.459-0.692-0.78-1.149-0.964-0.452-0.188-0.946-0.235-1.482-0.141-0.537 0.094-1.095 0.337-1.674 0.727v0c-0.574 0.386-1.008 0.812-1.303 1.277-0.289 0.462-0.435 0.939-0.437 1.432 0.004 0.489 0.161 0.963 0.469 1.422v0c0.313 0.465 0.695 0.791 1.147 0.979 0.453 0.178 0.946 0.217 1.479 0.117 0.542-0.098 1.1-0.34 1.674-0.727v0c0.579-0.39 1.014-0.816 1.303-1.277 0.293-0.456 0.44-0.925 0.44-1.409 0.002-0.493-0.154-0.972-0.467-1.436z" fill="#000000" data-fill-palette-color="secondary"></path><path d="M39.532 230.767l6.799-2.868 0.868 1.045-8.343 3.234-0.795-0.958 3.798-6.255-6.78 2.664-0.788-0.949 4.705-7.615 0.868 1.045-4.069 6.157 6.912-2.733 0.788 0.949z" fill="#000000" data-fill-palette-color="secondary"></path><path d="M45.196 239.188v0c-0.542-0.543-0.901-1.148-1.076-1.813-0.17-0.67-0.14-1.359 0.09-2.068 0.226-0.704 0.664-1.381 1.315-2.03v0c0.646-0.645 1.321-1.084 2.026-1.318 0.709-0.229 1.391-0.26 2.046-0.093 0.66 0.162 1.254 0.507 1.782 1.036v0c0.537 0.538 0.874 1.116 1.01 1.732 0.131 0.611 0.089 1.225-0.127 1.841-0.216 0.616-0.588 1.188-1.117 1.715v0c-0.127 0.127-0.242 0.237-0.345 0.329-0.103 0.083-0.196 0.156-0.279 0.22v0l-4.659-4.67 0.771-0.769 4.278 4.288-0.549-0.345c0.411-0.41 0.69-0.826 0.837-1.246 0.142-0.425 0.165-0.838 0.067-1.24-0.102-0.406-0.319-0.775-0.651-1.108v0c-0.386-0.387-0.816-0.627-1.29-0.72-0.474-0.093-0.963-0.04-1.467 0.159-0.504 0.2-1.001 0.544-1.49 1.033v0c-0.489 0.488-0.832 0.987-1.029 1.495-0.191 0.513-0.236 1.012-0.133 1.496 0.102 0.484 0.349 0.922 0.739 1.314v0c0.415 0.416 0.848 0.673 1.297 0.771 0.46 0.098 0.917 0.077 1.372-0.064v0l0.292 1.086c-0.421 0.127-0.846 0.175-1.276 0.145-0.43-0.02-0.851-0.128-1.261-0.324-0.41-0.196-0.801-0.48-1.173-0.852z" fill="#000000" data-fill-palette-color="secondary"></path><path d="M51.668 244.975l-0.923-0.804 5.575-6.396 0.774 0.675-0.872 1.221c0.506-0.265 1.014-0.364 1.524-0.295 0.514 0.063 0.998 0.292 1.451 0.687v0c0.12 0.104 0.231 0.219 0.332 0.344 0.097 0.121 0.164 0.248 0.203 0.383v0l-0.886 0.701c-0.047-0.114-0.116-0.23-0.207-0.346-0.082-0.117-0.216-0.257-0.404-0.421v0c-0.255-0.223-0.581-0.36-0.977-0.411-0.401-0.056-0.823 0.007-1.266 0.19-0.448 0.188-0.874 0.513-1.278 0.977v0z" fill="#000000" data-fill-palette-color="secondary"></path><path d="M61.997 242.512l0.961 0.758-5.257 6.66-0.961-0.759zM63.56 241.671v0c-0.244-0.193-0.382-0.42-0.413-0.683-0.031-0.262 0.048-0.513 0.236-0.751v0c0.189-0.239 0.414-0.374 0.677-0.405 0.262-0.031 0.515 0.05 0.759 0.243v0c0.239 0.189 0.374 0.414 0.405 0.676 0.031 0.262-0.048 0.513-0.237 0.752v0c-0.189 0.239-0.414 0.374-0.676 0.404-0.262 0.031-0.513-0.048-0.751-0.236z" fill="#000000" data-fill-palette-color="secondary"></path><path d="M62.343 253.277l-1.005-0.699 4.84-6.968 0.886 0.615-1.036 1.655-0.058-0.243c0.585-0.419 1.188-0.602 1.808-0.549 0.626 0.056 1.209 0.271 1.749 0.646v0c0.471 0.327 0.833 0.722 1.085 1.183 0.248 0.467 0.356 0.972 0.325 1.514-0.035 0.548-0.26 1.12-0.674 1.716v0l-3.106 4.473-1.006-0.699 2.864-4.123c0.536-0.772 0.753-1.43 0.65-1.973-0.112-0.541-0.41-0.979-0.892-1.314v0c-0.335-0.233-0.722-0.379-1.16-0.44-0.442-0.054-0.894 0.027-1.357 0.245-0.459 0.212-0.891 0.61-1.297 1.195v0z" fill="#000000" data-fill-palette-color="secondary"></path><path d="M81.941 253.564v0l-0.3 1.071c-0.006-0.003-0.021-0.012-0.045-0.025-0.018-0.01-0.036-0.021-0.054-0.031v0c-0.463-0.263-0.88-0.362-1.252-0.295-0.369 0.061-0.676 0.307-0.923 0.739v0l-0.436-0.701c0.216-0.379 0.488-0.661 0.817-0.848 0.329-0.187 0.675-0.276 1.037-0.269 0.368 0.011 0.729 0.117 1.084 0.318v0c0.018 0.01 0.033 0.019 0.045 0.026 0.006 0.003 0.015 0.009 0.027 0.015zM73.23 258.989l2.037 1.16c0.685 0.39 1.129 0.854 1.333 1.391 0.203 0.537 0.156 1.068-0.142 1.59v0c-0.267 0.469-0.65 0.792-1.148 0.97-0.495 0.171-1.056 0.206-1.683 0.104-0.626-0.102-1.264-0.338-1.913-0.707v0c-1.1-0.626-1.815-1.292-2.145-1.998-0.336-0.709-0.346-1.343-0.027-1.901v0c0.222-0.391 0.555-0.667 0.997-0.829 0.445-0.152 0.969-0.089 1.573 0.192v0l-0.185 0.157c-0.277-0.269-0.467-0.577-0.572-0.923-0.099-0.343-0.036-0.713 0.19-1.109v0c0.212-0.373 0.54-0.627 0.984-0.764 0.45-0.134 0.972-0.071 1.565 0.186v0l0.561 0.797-0.19-0.108c-0.471-0.221-0.867-0.295-1.186-0.222-0.326 0.069-0.561 0.23-0.705 0.483v0c-0.164 0.288-0.182 0.565-0.054 0.828 0.119 0.267 0.355 0.501 0.71 0.703zM72.23 262.633v0c0.541 0.308 1.026 0.504 1.455 0.589 0.438 0.083 0.807 0.078 1.106-0.014 0.303-0.098 0.521-0.265 0.654-0.499v0c0.168-0.294 0.187-0.594 0.058-0.898-0.139-0.302-0.472-0.603-1.001-0.905v0l-2.136-1.216c-0.337-0.192-0.673-0.264-1.011-0.217-0.337 0.047-0.593 0.223-0.767 0.53v0c-0.219 0.385-0.185 0.814 0.102 1.288 0.287 0.474 0.8 0.921 1.54 1.342zM77.711 252.755v0c0.571 0.325 1.013 0.716 1.325 1.173 0.313 0.457 0.486 0.941 0.521 1.454 0.038 0.507-0.08 1.001-0.354 1.481v0c-0.274 0.481-0.643 0.836-1.107 1.065-0.459 0.232-0.966 0.333-1.522 0.303-0.552-0.036-1.111-0.215-1.676-0.536v0c-0.919-0.523-1.503-1.162-1.75-1.916-0.241-0.75-0.155-1.489 0.259-2.216v0c0.274-0.481 0.638-0.834 1.093-1.06 0.459-0.232 0.967-0.329 1.526-0.289 0.558 0.039 1.12 0.22 1.685 0.541zM77.223 253.612v0c-0.517-0.294-1.033-0.393-1.549-0.298-0.516 0.096-0.911 0.384-1.185 0.865v0c-0.274 0.481-0.319 0.972-0.135 1.475 0.177 0.499 0.522 0.894 1.032 1.184v0c0.511 0.291 1.029 0.387 1.554 0.289 0.52-0.102 0.916-0.393 1.19-0.874v0c0.274-0.481 0.32-0.968 0.14-1.461-0.175-0.489-0.524-0.883-1.047-1.18z" fill="#000000" data-fill-palette-color="secondary"></path><path d="M90.461 268.568v0c-0.942-0.382-1.674-0.933-2.195-1.653-0.524-0.713-0.813-1.546-0.866-2.5-0.049-0.945 0.15-1.969 0.598-3.071v0c0.445-1.096 1.028-1.963 1.75-2.603 0.72-0.633 1.52-1.025 2.402-1.174 0.888-0.147 1.797-0.032 2.726 0.345v0c1 0.406 1.736 0.936 2.209 1.591 0.473 0.655 0.726 1.466 0.758 2.434v0l-1.268 0.146c0.042-0.729-0.117-1.357-0.478-1.884-0.363-0.521-0.913-0.93-1.65-1.23v0c-0.692-0.281-1.371-0.355-2.037-0.222-0.672 0.13-1.288 0.451-1.846 0.963-0.568 0.516-1.032 1.219-1.394 2.11v0c-0.362 0.891-0.535 1.712-0.519 2.464 0.009 0.75 0.203 1.403 0.581 1.96 0.379 0.557 0.946 0.988 1.702 1.296v0c0.449 0.182 0.886 0.281 1.312 0.297 0.417 0.02 0.811-0.04 1.182-0.181 0.362-0.137 0.686-0.348 0.974-0.634 0.288-0.286 0.519-0.644 0.693-1.073v0l0.172-0.423-3.22-1.307 0.429-1.057 4.258 1.728-2.107 5.19-0.894-0.363 0.748-2.036 0.229 0.126c-0.536 0.566-1.161 0.921-1.876 1.064-0.724 0.147-1.515 0.046-2.373-0.303z" fill="#000000" data-fill-palette-color="secondary"></path><path d="M99.912 271.775l-1.168-0.367 2.545-8.094 0.98 0.308-0.31 1.469c0.358-0.446 0.783-0.74 1.278-0.882 0.496-0.148 1.031-0.132 1.605 0.048v0c0.152 0.048 0.299 0.109 0.442 0.183 0.137 0.072 0.25 0.162 0.34 0.27v0l-0.531 0.996c-0.089-0.086-0.199-0.164-0.329-0.233-0.122-0.074-0.301-0.149-0.538-0.224v0c-0.323-0.102-0.676-0.097-1.06 0.015-0.39 0.109-0.751 0.337-1.084 0.681-0.335 0.351-0.595 0.82-0.779 1.408v0z" fill="#000000" data-fill-palette-color="secondary"></path><path d="M111.347 265.878v0c0.746 0.179 1.364 0.509 1.854 0.989 0.491 0.473 0.823 1.072 0.998 1.797 0.174 0.725 0.155 1.531-0.058 2.418v0c-0.215 0.894-0.564 1.621-1.047 2.181-0.484 0.566-1.054 0.952-1.707 1.158-0.652 0.199-1.352 0.209-2.098 0.029v0c-0.74-0.178-1.358-0.504-1.856-0.979-0.496-0.482-0.831-1.085-1.005-1.809-0.176-0.718-0.157-1.524 0.058-2.418v0c0.213-0.888 0.562-1.614 1.046-2.181 0.484-0.566 1.056-0.948 1.715-1.146 0.661-0.204 1.361-0.217 2.1-0.039zM111.103 266.896v0c-0.538-0.129-1.037-0.107-1.499 0.067-0.46 0.167-0.855 0.467-1.186 0.899-0.331 0.432-0.579 0.988-0.742 1.668v0c-0.161 0.672-0.194 1.28-0.096 1.822 0.099 0.536 0.314 0.986 0.646 1.35 0.334 0.357 0.77 0.601 1.308 0.73v0c0.545 0.131 1.047 0.113 1.506-0.055 0.455-0.175 0.844-0.48 1.169-0.914 0.333-0.439 0.58-0.995 0.742-1.667v0c0.163-0.679 0.195-1.287 0.096-1.822-0.092-0.534-0.302-0.979-0.629-1.335-0.332-0.364-0.77-0.612-1.315-0.743z" fill="#000000" data-fill-palette-color="secondary"></path><path d="M125.265 275.51l3.068-6.712 1.346 0.183-3.958 8.025-1.233-0.168-1.433-7.176-3.192 6.548-1.223-0.166-1.685-8.791 1.346 0.183 1.167 7.287 3.243-6.688 1.223 0.166z" fill="#000000" data-fill-palette-color="secondary"></path><path d="M133.067 267.093l1.238-0.274-0.408 8.537c-0.021 0.449 0.076 0.793 0.293 1.032 0.21 0.238 0.502 0.367 0.875 0.385v0c0.318 0.015 0.59-0.031 0.816-0.138 0.226-0.1 0.434-0.242 0.623-0.427v0l0.356 1.035c-0.26 0.23-0.556 0.403-0.887 0.518-0.331 0.109-0.707 0.153-1.128 0.133v0c-0.635-0.03-1.166-0.229-1.591-0.595-0.432-0.374-0.629-0.968-0.59-1.783v0zM131.373 269.068l5.729 0.274-0.05 1.056-5.729-0.274z" fill="#000000" data-fill-palette-color="secondary"></path><path d="M141.261 277.793l-1.224 0.02-0.198-12.383 1.223-0.02 0.085 5.289c0.261-0.537 0.632-0.933 1.112-1.19 0.48-0.264 1.014-0.4 1.601-0.409v0c0.574-0.009 1.098 0.096 1.572 0.317 0.474 0.228 0.856 0.578 1.147 1.05 0.291 0.466 0.442 1.061 0.454 1.787v0l0.088 5.445-1.224 0.02-0.081-5.041c-0.015-0.94-0.223-1.594-0.623-1.961-0.407-0.374-0.905-0.556-1.492-0.546v0c-0.408 0.007-0.807 0.113-1.198 0.32-0.391 0.214-0.711 0.544-0.959 0.99-0.249 0.44-0.368 1.016-0.356 1.728v0z" fill="#000000" data-fill-palette-color="secondary"></path><path d="M151.969 275.425v0c0.372-0.031 0.673 0.086 0.904 0.351 0.23 0.265 0.365 0.629 0.404 1.09v0c0.03 0.351-0.003 0.705-0.099 1.06-0.096 0.348-0.259 0.678-0.489 0.988-0.224 0.31-0.531 0.579-0.921 0.806v0l-0.691-0.546c0.281-0.121 0.524-0.283 0.729-0.488 0.205-0.205 0.367-0.426 0.485-0.665 0.112-0.238 0.176-0.469 0.192-0.693v0l-0.055-0.037c-0.038 0.038-0.091 0.07-0.159 0.097-0.067 0.033-0.162 0.055-0.286 0.066v0c-0.179 0.015-0.375-0.048-0.588-0.19-0.206-0.142-0.324-0.382-0.352-0.72v0c-0.024-0.283 0.052-0.532 0.229-0.748 0.182-0.224 0.415-0.347 0.697-0.371z" fill="#000000" data-fill-palette-color="secondary"></path><path d="M162.334 264.59l1.205-0.211 1.929 11.035-1.206 0.211z" fill="#000000" data-fill-palette-color="secondary"></path><path d="M171.235 274.099l-1.188 0.292-2.022-8.24 1.048-0.257 0.555 1.871-0.221-0.116c0.074-0.716 0.335-1.289 0.785-1.72 0.456-0.432 1.004-0.727 1.642-0.884v0c0.557-0.137 1.092-0.147 1.605-0.03 0.514 0.123 0.964 0.376 1.35 0.758 0.387 0.389 0.668 0.936 0.84 1.641v0l1.298 5.289-1.189 0.292-1.196-4.876c-0.224-0.913-0.574-1.511-1.049-1.793-0.48-0.274-1.006-0.341-1.576-0.201v0c-0.396 0.097-0.762 0.29-1.097 0.579-0.333 0.295-0.572 0.688-0.715 1.179-0.145 0.484-0.132 1.072 0.038 1.764v0z" fill="#000000" data-fill-palette-color="secondary"></path><path d="M183.948 270.566v0c-0.753 0.255-1.497 0.323-2.23 0.206-0.735-0.124-1.366-0.436-1.893-0.937v0l0.724-1.032c0.389 0.438 0.854 0.722 1.394 0.853 0.538 0.125 1.119 0.082 1.741-0.128v0c0.557-0.188 0.959-0.455 1.207-0.802 0.248-0.346 0.306-0.713 0.176-1.1v0c-0.082-0.242-0.231-0.436-0.448-0.582-0.219-0.152-0.554-0.203-1.004-0.153v0l-1.935 0.205c-0.811 0.084-1.439-0.003-1.884-0.262-0.445-0.258-0.759-0.659-0.943-1.203v0c-0.146-0.432-0.158-0.866-0.034-1.302 0.121-0.442 0.369-0.851 0.746-1.226 0.372-0.367 0.86-0.652 1.462-0.856v0c0.747-0.252 1.435-0.31 2.066-0.172 0.624 0.14 1.159 0.459 1.605 0.957v0l-0.744 0.942c-0.339-0.44-0.746-0.708-1.224-0.802-0.468-0.09-0.922-0.061-1.361 0.087v0c-0.373 0.126-0.682 0.293-0.926 0.499-0.238 0.204-0.398 0.43-0.483 0.678-0.075 0.252-0.07 0.505 0.017 0.761v0c0.084 0.249 0.247 0.449 0.488 0.601 0.237 0.161 0.591 0.216 1.063 0.167v0l2.016-0.222c0.776-0.08 1.364-0.001 1.766 0.236 0.399 0.23 0.684 0.597 0.854 1.101v0c0.255 0.753 0.178 1.444-0.231 2.071-0.413 0.636-1.075 1.108-1.985 1.415z" fill="#000000" data-fill-palette-color="secondary"></path><path d="M193.097 270.696l-1.126 0.48-4.722-11.077 0.992-0.423 0.932 1.948-0.219-0.144c-0.078-0.658 0.059-1.273 0.41-1.843 0.347-0.561 0.854-0.984 1.522-1.269v0c0.623-0.266 1.259-0.345 1.906-0.238 0.651 0.098 1.256 0.389 1.815 0.873 0.559 0.483 1.018 1.145 1.376 1.984v0c0.361 0.846 0.517 1.636 0.469 2.371-0.045 0.741-0.259 1.385-0.642 1.931-0.386 0.54-0.891 0.943-1.514 1.209v0c-0.636 0.271-1.257 0.34-1.862 0.208-0.612-0.13-1.133-0.419-1.565-0.867v0l0.04-0.276zM193.753 265.568v0c0.751-0.32 1.224-0.849 1.421-1.586 0.194-0.744 0.092-1.584-0.307-2.519v0c-0.399-0.935-0.93-1.592-1.596-1.97-0.656-0.374-1.353-0.404-2.09-0.09v0c-0.477 0.203-0.846 0.511-1.106 0.923-0.26 0.412-0.398 0.891-0.413 1.439-0.015 0.547 0.111 1.133 0.377 1.756v0c0.263 0.617 0.594 1.111 0.992 1.482 0.402 0.378 0.835 0.618 1.3 0.721 0.471 0.1 0.945 0.048 1.422-0.155z" fill="#000000" data-fill-palette-color="secondary"></path><path d="M197.345 255.52l1.092-0.553 3.831 7.571-1.093 0.552zM197.239 253.749v0c-0.278 0.14-0.542 0.17-0.793 0.087-0.251-0.082-0.445-0.259-0.582-0.531v0c-0.137-0.271-0.165-0.533-0.083-0.783 0.082-0.251 0.262-0.447 0.54-0.587v0c0.271-0.137 0.533-0.165 0.784-0.083 0.251 0.082 0.445 0.259 0.582 0.531v0c0.137 0.271 0.165 0.533 0.083 0.783-0.082 0.251-0.259 0.445-0.531 0.583z" fill="#000000" data-fill-palette-color="secondary"></path><path d="M207.234 259.779l-1.062 0.607-4.214-7.364 0.891-0.51 0.868 1.225c-0.084-0.565-0.011-1.077 0.22-1.537 0.228-0.465 0.603-0.847 1.125-1.145v0c0.138-0.079 0.283-0.146 0.435-0.201 0.146-0.052 0.289-0.074 0.429-0.066v0l0.371 1.066c-0.123 0.007-0.255 0.034-0.395 0.083-0.137 0.039-0.314 0.12-0.53 0.243v0c-0.294 0.168-0.53 0.431-0.708 0.788-0.184 0.36-0.263 0.78-0.236 1.258 0.03 0.485 0.198 0.994 0.504 1.529v0z" fill="#000000" data-fill-palette-color="secondary"></path><path d="M208.296 249.213l1.032-0.659 4.565 7.151-1.031 0.659zM208.014 247.461v0c-0.262 0.167-0.522 0.223-0.78 0.165-0.258-0.057-0.469-0.214-0.632-0.47v0c-0.164-0.256-0.217-0.514-0.161-0.771 0.057-0.258 0.216-0.47 0.479-0.638v0c0.256-0.164 0.514-0.217 0.772-0.16 0.258 0.057 0.469 0.214 0.632 0.47v0c0.164 0.256 0.217 0.514 0.16 0.771-0.057 0.258-0.214 0.469-0.47 0.633z" fill="#000000" data-fill-palette-color="secondary"></path><path d="M218.578 252.419l-0.989 0.72-4.994-6.859 0.872-0.635 1.223 1.522-0.249-0.025c-0.203-0.69-0.178-1.32 0.075-1.889 0.258-0.573 0.653-1.053 1.184-1.439v0c0.464-0.338 0.955-0.55 1.474-0.637 0.523-0.081 1.035-0.018 1.537 0.19 0.506 0.213 0.973 0.613 1.4 1.2v0l3.205 4.402-0.99 0.721-2.955-4.059c-0.554-0.76-1.104-1.181-1.65-1.262-0.548-0.071-1.06 0.066-1.535 0.412v0c-0.33 0.24-0.595 0.557-0.795 0.951-0.197 0.4-0.268 0.854-0.214 1.363 0.05 0.503 0.284 1.042 0.703 1.617v0z" fill="#000000" data-fill-palette-color="secondary"></path><path d="M225.279 234v0l0.913 0.634c-0.005 0.005-0.018 0.016-0.039 0.034-0.016 0.014-0.031 0.027-0.047 0.041v0c-0.401 0.351-0.63 0.713-0.689 1.086-0.064 0.368 0.068 0.74 0.396 1.115v0l-0.806 0.181c-0.287-0.328-0.465-0.678-0.533-1.049-0.068-0.372-0.04-0.728 0.086-1.068 0.131-0.344 0.349-0.651 0.656-0.919v0c0.016-0.014 0.029-0.025 0.039-0.034 0.005-0.005 0.013-0.011 0.024-0.021zM227.547 244.008l1.764-1.544c0.593-0.519 1.177-0.787 1.751-0.803 0.574-0.016 1.06 0.203 1.456 0.655v0c0.355 0.406 0.535 0.873 0.539 1.403-0.001 0.524-0.152 1.066-0.453 1.624-0.302 0.558-0.733 1.083-1.296 1.575v0c-0.952 0.834-1.816 1.291-2.59 1.372-0.78 0.085-1.382-0.114-1.805-0.598v0c-0.296-0.338-0.448-0.743-0.456-1.213 0.002-0.47 0.234-0.945 0.697-1.424v0l0.088 0.226c-0.345 0.173-0.698 0.253-1.06 0.238-0.356-0.019-0.685-0.2-0.985-0.543v0c-0.282-0.323-0.416-0.716-0.4-1.18 0.021-0.469 0.251-0.941 0.69-1.417v0l0.937-0.269-0.164 0.144c-0.363 0.373-0.562 0.722-0.599 1.048-0.042 0.33 0.033 0.605 0.224 0.823v0c0.219 0.25 0.474 0.357 0.766 0.323 0.291-0.025 0.59-0.172 0.896-0.44zM230.661 246.148v0c0.468-0.41 0.813-0.804 1.034-1.181 0.222-0.387 0.338-0.737 0.349-1.05 0.006-0.318-0.079-0.579-0.257-0.782v0c-0.223-0.255-0.5-0.371-0.829-0.349-0.33 0.032-0.725 0.248-1.182 0.649v0l-1.85 1.62c-0.291 0.255-0.47 0.549-0.536 0.883-0.066 0.334 0.017 0.633 0.249 0.898v0c0.291 0.333 0.708 0.442 1.25 0.326 0.542-0.116 1.133-0.454 1.772-1.014zM223.127 237.731v0c0.494-0.433 1.008-0.722 1.543-0.868 0.534-0.146 1.049-0.151 1.544-0.015 0.491 0.131 0.919 0.404 1.284 0.82v0c0.364 0.416 0.579 0.881 0.642 1.396 0.069 0.509-0.002 1.022-0.212 1.536-0.215 0.51-0.567 0.979-1.057 1.408v0c-0.796 0.697-1.591 1.039-2.383 1.025-0.788-0.018-1.457-0.342-2.008-0.972v0c-0.364-0.416-0.579-0.876-0.644-1.38-0.069-0.509 0.007-1.021 0.227-1.536 0.22-0.515 0.575-0.986 1.064-1.414zM223.776 238.472v0c-0.447 0.392-0.71 0.847-0.789 1.367-0.079 0.519 0.064 0.987 0.429 1.403v0c0.364 0.416 0.814 0.62 1.349 0.611 0.529-0.004 1.015-0.2 1.457-0.587v0c0.442-0.387 0.703-0.845 0.783-1.374 0.074-0.524-0.071-0.995-0.436-1.411v0c-0.364-0.416-0.809-0.62-1.334-0.61-0.52 0.005-1.006 0.205-1.459 0.601z" fill="#000000" data-fill-palette-color="secondary"></path><path d="M241.675 226.218l1.158-0.612c0.499 0.888 0.694 1.794 0.583 2.718-0.101 0.923-0.496 1.777-1.185 2.562v0c-0.661 0.754-1.417 1.259-2.267 1.516-0.845 0.261-1.727 0.261-2.646-0.003-0.909-0.264-1.811-0.787-2.705-1.571v0c-0.884-0.775-1.519-1.598-1.904-2.47-0.381-0.877-0.502-1.751-0.364-2.622 0.139-0.872 0.536-1.682 1.193-2.43v0c0.47-0.536 0.965-0.943 1.485-1.222 0.511-0.279 1.04-0.436 1.586-0.472 0.556-0.037 1.121 0.054 1.694 0.271v0l-0.35 1.28c-0.675-0.279-1.302-0.355-1.882-0.23-0.57 0.126-1.11 0.48-1.62 1.063v0c-0.492 0.562-0.785 1.174-0.879 1.836-0.098 0.668 0.008 1.349 0.318 2.044 0.31 0.695 0.829 1.362 1.557 2v0c0.718 0.629 1.437 1.057 2.157 1.284 0.721 0.237 1.407 0.268 2.057 0.093 0.65-0.175 1.223-0.546 1.72-1.113v0c0.511-0.582 0.798-1.209 0.862-1.879 0.059-0.675-0.131-1.356-0.568-2.043z" fill="#000000" data-fill-palette-color="secondary"></path><path d="M247.99 223.462l-0.725 0.986-9.98-7.333 0.725-0.986 4.263 3.132c-0.269-0.533-0.361-1.068-0.275-1.605 0.08-0.542 0.295-1.049 0.642-1.523v0c0.34-0.463 0.741-0.816 1.203-1.059 0.468-0.24 0.978-0.333 1.531-0.279 0.547 0.05 1.113 0.29 1.698 0.72v0l4.388 3.225-0.725 0.986-4.062-2.985c-0.758-0.557-1.404-0.787-1.938-0.69-0.544 0.098-0.99 0.384-1.338 0.857v0c-0.242 0.329-0.398 0.711-0.47 1.148-0.066 0.44 0.003 0.895 0.208 1.363 0.2 0.464 0.586 0.907 1.16 1.328v0z" fill="#000000" data-fill-palette-color="secondary"></path><path d="M253.688 209.215l-2.067-1.253c-0.55-0.333-1.069-0.45-1.558-0.351-0.489 0.1-0.895 0.416-1.218 0.948v0c-0.294 0.485-0.431 0.964-0.41 1.437 0.023 0.483 0.231 0.953 0.625 1.41v0l-1.045 0.543c-0.432-0.529-0.662-1.142-0.693-1.839-0.024-0.694 0.185-1.404 0.626-2.132v0c0.312-0.514 0.677-0.916 1.094-1.204 0.421-0.294 0.89-0.447 1.406-0.458 0.51-0.014 1.046 0.149 1.608 0.49v0l3.538 2.146c0.396 0.24 0.707 0.174 0.933-0.198v0c0.047-0.077 0.09-0.168 0.13-0.273 0.046-0.102 0.075-0.197 0.088-0.286v0l0.787 0.562c-0.005 0.102-0.029 0.221-0.071 0.357-0.052 0.139-0.124 0.285-0.217 0.438v0c-0.151 0.248-0.339 0.445-0.565 0.592-0.23 0.152-0.49 0.221-0.78 0.206-0.294-0.009-0.604-0.111-0.929-0.309v0l-0.204-0.123 0.188-0.25c0.314 0.336 0.514 0.712 0.601 1.129 0.081 0.413 0.08 0.829-0.004 1.247-0.09 0.415-0.24 0.796-0.452 1.145v0c-0.38 0.627-0.866 1.068-1.458 1.323-0.594 0.246-1.216 0.172-1.866-0.222v0c-0.52-0.316-0.856-0.749-1.006-1.301-0.154-0.546-0.099-1.184 0.165-1.914v0l1.093-3.122 0.869 0.527-0.886 2.581c-0.192 0.53-0.267 0.966-0.223 1.308 0.043 0.342 0.237 0.617 0.58 0.825v0c0.325 0.197 0.66 0.239 1.004 0.124 0.339-0.118 0.642-0.399 0.911-0.843v0c0.158-0.26 0.278-0.539 0.362-0.836 0.08-0.291 0.104-0.584 0.072-0.878-0.034-0.304-0.134-0.586-0.299-0.848-0.161-0.268-0.404-0.5-0.729-0.698z" fill="#000000" data-fill-palette-color="secondary"></path><path d="M259.58 204.899l-0.556 1.091-7.56-3.853 0.49-0.961 1.78 0.803-0.233 0.091c-0.494-0.523-0.757-1.096-0.789-1.718-0.029-0.628 0.105-1.235 0.403-1.82v0c0.261-0.511 0.602-0.923 1.026-1.235 0.429-0.309 0.914-0.485 1.456-0.527 0.548-0.039 1.145 0.106 1.792 0.435v0l4.851 2.473-0.555 1.09-4.473-2.279c-0.838-0.427-1.519-0.553-2.043-0.377-0.521 0.185-0.915 0.539-1.182 1.062v0c-0.185 0.363-0.278 0.766-0.278 1.209 0.006 0.445 0.148 0.882 0.426 1.311 0.272 0.426 0.725 0.8 1.36 1.124v0z" fill="#000000" data-fill-palette-color="secondary"></path><path d="M257.211 185.443v0l1.102 0.152c-0.003 0.006-0.009 0.022-0.02 0.048-0.008 0.019-0.015 0.038-0.023 0.058v0c-0.198 0.494-0.239 0.921-0.123 1.281 0.11 0.357 0.396 0.628 0.858 0.813v0l-0.636 0.527c-0.404-0.162-0.721-0.394-0.951-0.694-0.229-0.301-0.365-0.631-0.407-0.991-0.039-0.366 0.017-0.738 0.169-1.117v0c0.008-0.019 0.014-0.035 0.019-0.048 0.003-0.006 0.006-0.016 0.012-0.029zM263.766 193.339l0.873-2.176c0.294-0.732 0.693-1.234 1.198-1.508 0.505-0.274 1.037-0.299 1.595-0.075v0c0.501 0.201 0.873 0.536 1.116 1.006 0.237 0.468 0.347 1.019 0.331 1.653-0.016 0.634-0.163 1.298-0.442 1.991v0c-0.471 1.174-1.034 1.973-1.688 2.396-0.657 0.429-1.283 0.524-1.88 0.285v0c-0.417-0.167-0.736-0.459-0.956-0.876-0.211-0.42-0.219-0.949-0.024-1.585v0l0.181 0.162c-0.229 0.31-0.508 0.541-0.836 0.693-0.326 0.145-0.701 0.132-1.125-0.038v0c-0.398-0.16-0.695-0.45-0.891-0.872-0.193-0.428-0.202-0.953-0.027-1.576v0l0.714-0.663-0.082 0.202c-0.155 0.497-0.174 0.899-0.059 1.205 0.113 0.313 0.304 0.524 0.573 0.633v0c0.308 0.124 0.584 0.104 0.829-0.059 0.248-0.154 0.448-0.42 0.6-0.798zM267.511 193.836v0c0.232-0.578 0.361-1.085 0.387-1.521 0.022-0.446-0.032-0.81-0.164-1.094-0.138-0.287-0.333-0.48-0.583-0.581v0c-0.314-0.126-0.614-0.105-0.898 0.065-0.28 0.178-0.534 0.55-0.76 1.114v0l-0.916 2.281c-0.144 0.359-0.17 0.703-0.078 1.031 0.092 0.328 0.302 0.557 0.629 0.688v0c0.411 0.165 0.831 0.073 1.262-0.276 0.431-0.349 0.804-0.918 1.121-1.707zM256.982 189.744v0c0.245-0.61 0.572-1.1 0.983-1.472 0.41-0.372 0.867-0.61 1.37-0.713 0.497-0.106 1.002-0.056 1.516 0.15v0c0.513 0.206 0.915 0.524 1.204 0.953 0.292 0.423 0.461 0.912 0.507 1.466 0.039 0.552-0.062 1.13-0.305 1.733v0c-0.394 0.982-0.948 1.646-1.66 1.994-0.711 0.341-1.454 0.355-2.231 0.043v0c-0.513-0.206-0.913-0.519-1.199-0.939-0.292-0.423-0.457-0.914-0.493-1.472-0.037-0.559 0.066-1.14 0.308-1.743zM257.897 190.111v0c-0.222 0.552-0.25 1.077-0.085 1.576 0.165 0.498 0.504 0.851 1.018 1.056v0c0.513 0.206 1.006 0.184 1.479-0.065 0.47-0.243 0.815-0.638 1.034-1.184v0c0.219-0.545 0.244-1.072 0.075-1.579-0.171-0.501-0.514-0.855-1.027-1.06v0c-0.513-0.206-1.002-0.186-1.466 0.059-0.461 0.24-0.804 0.638-1.028 1.197z" fill="#000000" data-fill-palette-color="secondary"></path><path d="M268.745 182.947v0c-0.234 0.731-0.605 1.327-1.115 1.789-0.517 0.459-1.143 0.749-1.879 0.87-0.729 0.123-1.531 0.044-2.407-0.236v0c-0.869-0.278-1.57-0.676-2.102-1.193-0.529-0.525-0.87-1.116-1.022-1.775-0.159-0.661-0.125-1.347 0.102-2.058v0c0.231-0.725 0.59-1.289 1.074-1.693 0.483-0.398 1.047-0.642 1.693-0.733 0.646-0.091 1.325-0.023 2.037 0.204v0c0.171 0.055 0.322 0.106 0.451 0.155 0.121 0.053 0.229 0.102 0.323 0.147v0l-2.007 6.283-1.037-0.331 1.843-5.77-0.054 0.647c-0.553-0.177-1.05-0.234-1.492-0.172-0.443 0.069-0.82 0.239-1.132 0.51-0.314 0.277-0.542 0.64-0.685 1.088v0c-0.166 0.52-0.182 1.013-0.047 1.476 0.135 0.464 0.407 0.874 0.816 1.23 0.409 0.356 0.943 0.639 1.602 0.849v0c0.659 0.21 1.259 0.286 1.8 0.227 0.544-0.066 1.007-0.255 1.39-0.569 0.383-0.313 0.659-0.733 0.828-1.26v0c0.179-0.56 0.209-1.062 0.089-1.507-0.124-0.453-0.353-0.85-0.687-1.188v0l0.83-0.759c0.306 0.315 0.544 0.671 0.715 1.067 0.18 0.391 0.277 0.814 0.292 1.269 0.014 0.455-0.058 0.932-0.219 1.433z" fill="#000000" data-fill-palette-color="secondary"></path></g></svg></g></svg></g></svg></g></svg></g><defs></defs></svg><rect width="279.72" height="279.72" fill="none" stroke="none" visibility="hidden"></rect></g></svg></g></svg>